<svg width="176" height="37" viewBox="0 0 176 37" fill="none" xmlns="http://www.w3.org/2000/svg">
<path d="M0.6875 34H18.3807V28.2727H7.79545V7.81818H0.6875V34ZM45.598 20.9091C45.598 12.1648 39.973 7.46023 32.8651 7.46023C25.706 7.46023 20.1321 12.1648 20.1321 20.9091C20.1321 29.6023 25.706 34.358 32.8651 34.358C39.973 34.358 45.598 29.6534 45.598 20.9091ZM38.2855 20.9091C38.2855 25.6136 36.3935 28.1705 32.8651 28.1705C29.3366 28.1705 27.4446 25.6136 27.4446 20.9091C27.4446 16.2045 29.3366 13.6477 32.8651 13.6477C36.3935 13.6477 38.2855 16.2045 38.2855 20.9091ZM65.8896 16.4602H73.0742C72.5245 11.206 67.756 7.46023 61.5685 7.46023C54.5117 7.46023 48.7844 12.3182 48.7844 20.9602C48.7844 29.2443 53.9748 34.358 61.6197 34.358C68.4719 34.358 73.381 30.1648 73.381 23.0057V19.375H61.7731V24.4375H66.5288C66.4648 26.7131 64.854 28.1705 61.6708 28.1705C57.989 28.1705 56.0969 25.4602 56.0969 20.858C56.0969 16.3196 58.1424 13.6477 61.7219 13.6477C63.9464 13.6477 65.4549 14.6705 65.8896 16.4602ZM102.059 20.9091C102.059 12.1648 96.434 7.46023 89.326 7.46023C82.1669 7.46023 76.593 12.1648 76.593 20.9091C76.593 29.6023 82.1669 34.358 89.326 34.358C96.434 34.358 102.059 29.6534 102.059 20.9091ZM94.7465 20.9091C94.7465 25.6136 92.8544 28.1705 89.326 28.1705C85.7976 28.1705 83.9055 25.6136 83.9055 20.9091C83.9055 16.2045 85.7976 13.6477 89.326 13.6477C92.8544 13.6477 94.7465 16.2045 94.7465 20.9091Z" fill="#2A2A2A"/>
<path d="M103.66 36.52H139.66V0.52H103.66V36.52ZM139.66 36.52H175.66V0.52H139.66V36.52Z" fill="white"/>
</svg>
